<svg width="201" height="27" viewBox="0 0 201 27" fill="none" xmlns="http://www.w3.org/2000/svg">
<path d="M17.82 -1.43051e-06C17.94 -1.43051e-06 18.06 0.119999 18.06 0.269999V20.76C18.06 20.91 17.94 21 17.82 21H13.56C13.47 21 13.41 20.97 13.35 20.91L6.21 10.92C6.09 10.71 5.76 10.83 5.76 11.07L5.85 20.76C5.85 20.91 5.76 21 5.61 21H0.99C0.84 21 0.75 20.91 0.75 20.76V0.269999C0.75 0.119999 0.84 -1.43051e-06 0.99 -1.43051e-06H5.19C5.28 -1.43051e-06 5.37 0.0599996 5.4 0.119999L12.57 10.86C12.72 11.07 13.05 10.98 13.02 10.74L12.93 0.269999C12.93 0.119999 13.05 -1.43051e-06 13.2 -1.43051e-06H17.82ZM36.4779 5.1C36.5979 5.1 36.7179 5.22 36.7179 5.37V20.76C36.7179 20.88 36.5979 21 36.4779 21H32.0079C31.8879 21 31.7679 20.88 31.7679 20.76V20.52C31.7679 20.43 31.6479 20.37 31.5879 20.4C30.2979 21.12 28.8579 21.51 27.3879 21.51C22.7379 21.51 18.9579 17.76 18.9579 13.17C18.9579 8.58 22.7379 4.86 27.3879 4.86C28.8579 4.86 30.2979 5.22 31.5879 5.94C31.6479 6 31.7679 5.94 31.7679 5.85V5.37C31.7679 5.22 31.8879 5.1 32.0079 5.1H36.4779ZM28.1379 17.01C30.2979 17.01 31.7679 15.3 31.7679 13.17C31.7679 11.07 30.2979 9.36 28.1379 9.36C26.0079 9.36 24.2679 11.07 24.2679 13.17C24.2679 15.3 26.0079 17.01 28.1379 17.01ZM47.1014 11.91C48.1214 12.39 50.4614 13.77 50.3114 16.26C50.2814 16.83 50.1314 17.43 49.8914 18.03C48.9314 20.07 46.7414 21.27 44.0114 21.27C43.6214 21.27 43.2314 21.24 42.8414 21.21C41.6114 21.06 40.5614 20.73 39.6614 20.22C38.7314 19.59 38.0414 18.72 37.5614 17.64C37.5014 17.49 37.5914 17.31 37.7414 17.28L42.0914 16.35C42.2114 16.32 42.3014 16.38 42.3614 16.47C42.6614 16.92 43.2014 17.13 43.4714 17.16C44.1314 17.25 44.4914 17.07 44.6714 16.92C44.8214 16.74 44.9114 16.5 44.8814 16.26C44.8214 15.72 44.4914 15.45 42.8114 14.67L42.7814 14.64C42.4514 14.49 42.0314 14.28 41.5514 14.07C41.2214 13.92 40.9214 13.77 40.6214 13.62L40.5914 13.59C40.5614 13.56 40.5314 13.56 40.4714 13.53C38.9714 12.66 38.0714 11.61 37.8614 10.38C37.5314 8.64 38.6414 7.17 38.8814 6.9C39.2114 6.51 39.6014 6.18 40.0514 5.91C41.3714 5.07 43.0814 4.71 44.8514 4.92C45.9014 5.04 46.8614 5.34 47.7014 5.76C48.1214 5.97 48.4814 6.24 48.8114 6.51C49.0514 6.72 49.7414 7.41 49.9814 8.49C50.0114 8.64 49.9214 8.76 49.7714 8.79L45.4814 9.66C45.3614 9.69 45.2414 9.6 45.2114 9.51C45.0914 9.21 44.8214 8.91 44.2514 8.82C43.8614 8.79 43.5314 8.91 43.3214 9.15C43.1414 9.33 43.0814 9.54 43.1414 9.72C43.2314 10.02 43.5014 10.47 45.1214 11.13C45.4214 11.25 45.7214 11.37 46.0214 11.49C46.3814 11.61 46.7414 11.76 47.1014 11.91ZM68.1771 5.1C68.2971 5.1 68.4171 5.22 68.4171 5.37V20.76C68.4171 20.88 68.2971 21 68.1771 21H63.7071C63.5871 21 63.4671 20.88 63.4671 20.76V20.52C63.4671 20.43 63.3471 20.37 63.2871 20.4C61.9971 21.12 60.5571 21.51 59.0871 21.51C54.4371 21.51 50.6571 17.76 50.6571 13.17C50.6571 8.58 54.4371 4.86 59.0871 4.86C60.5571 4.86 61.9971 5.22 63.2871 5.94C63.3471 6 63.4671 5.94 63.4671 5.85V5.37C63.4671 5.22 63.5871 5.1 63.7071 5.1H68.1771ZM59.8371 17.01C61.9971 17.01 63.4671 15.3 63.4671 13.17C63.4671 11.07 61.9971 9.36 59.8371 9.36C57.7071 9.36 55.9671 11.07 55.9671 13.17C55.9671 15.3 57.7071 17.01 59.8371 17.01ZM85.4501 0.87C89.2601 2.55 91.6901 6.36 91.6901 10.56C91.6901 12.57 91.1201 14.55 90.0701 16.23C89.0201 17.88 87.5501 19.2 85.8401 20.04C84.7301 20.61 83.7401 21.06 80.5901 21.06H74.3201C74.1701 21.06 74.0801 20.94 74.0801 20.82V0.299998C74.0801 0.149998 74.1701 0.0299982 74.3201 0.0299982H80.4401C83.1701 0.0299982 84.4601 0.449998 85.4501 0.87ZM84.9401 14.55C85.9001 13.56 86.4101 12.18 86.4101 10.53C86.3801 5.07 80.7401 4.86 79.4501 4.89C79.3001 4.89 79.1801 5.01 79.1801 5.16V15.9C79.1801 16.05 79.3001 16.17 79.4501 16.17H79.7501C81.9701 16.17 83.9801 15.54 84.9401 14.55ZM97.1571 5.1C97.3071 5.1 97.4271 5.22 97.4271 5.37V20.76C97.4271 20.91 97.3071 21 97.1571 21H92.7171C92.5671 21 92.4771 20.91 92.4771 20.76V5.37C92.4771 5.22 92.5671 5.1 92.7171 5.1H97.1571ZM97.1571 0.0899992C97.3071 0.0899992 97.4271 0.209999 97.4271 0.359999V3.6C97.4271 3.75 97.3071 3.87 97.1571 3.87H92.7171C92.5671 3.87 92.4771 3.75 92.4771 3.6V0.359999C92.4771 0.209999 92.5671 0.0899992 92.7171 0.0899992H97.1571ZM107.805 11.91C108.825 12.39 111.165 13.77 111.015 16.26C110.985 16.83 110.835 17.43 110.595 18.03C109.635 20.07 107.445 21.27 104.715 21.27C104.325 21.27 103.935 21.24 103.545 21.21C102.315 21.06 101.265 20.73 100.365 20.22C99.4345 19.59 98.7445 18.72 98.2645 17.64C98.2045 17.49 98.2945 17.31 98.4445 17.28L102.795 16.35C102.915 16.32 103.005 16.38 103.065 16.47C103.365 16.92 103.905 17.13 104.175 17.16C104.835 17.25 105.195 17.07 105.375 16.92C105.525 16.74 105.615 16.5 105.585 16.26C105.525 15.72 105.195 15.45 103.515 14.67L103.485 14.64C103.155 14.49 102.735 14.28 102.255 14.07C101.925 13.92 101.625 13.77 101.325 13.62L101.295 13.59C101.265 13.56 101.235 13.56 101.175 13.53C99.6745 12.66 98.7745 11.61 98.5645 10.38C98.2345 8.64 99.3445 7.17 99.5845 6.9C99.9145 6.51 100.305 6.18 100.755 5.91C102.075 5.07 103.785 4.71 105.555 4.92C106.605 5.04 107.565 5.34 108.405 5.76C108.825 5.97 109.185 6.24 109.515 6.51C109.755 6.72 110.445 7.41 110.685 8.49C110.715 8.64 110.625 8.76 110.475 8.79L106.185 9.66C106.065 9.69 105.945 9.6 105.915 9.51C105.795 9.21 105.525 8.91 104.955 8.82C104.565 8.79 104.235 8.91 104.025 9.15C103.845 9.33 103.785 9.54 103.845 9.72C103.935 10.02 104.205 10.47 105.825 11.13C106.125 11.25 106.425 11.37 106.725 11.49C107.085 11.61 107.445 11.76 107.805 11.91ZM126.87 17.19C126.99 17.28 127.05 17.43 126.96 17.55C126.84 17.76 126.66 18.03 126.54 18.15C126.39 18.36 126.24 18.57 126.06 18.75L126.03 18.78C125.97 18.84 125.85 18.96 125.79 19.05C125.76 19.05 125.76 19.08 125.73 19.08C125.67 19.17 125.58 19.23 125.52 19.29C125.46 19.35 125.43 19.38 125.37 19.41C125.34 19.44 125.31 19.47 125.28 19.5C124.05 20.52 122.55 21.21 120.96 21.42C120.9 21.42 120.84 21.45 120.78 21.45C120.72 21.45 120.66 21.45 120.6 21.48C120.48 21.48 120.39 21.48 120.27 21.48C120.24 21.48 120.21 21.51 120.15 21.51C120.03 21.51 119.91 21.51 119.79 21.51C115.14 21.51 111.36 17.76 111.36 13.17C111.36 8.58 115.14 4.86 119.79 4.86C119.91 4.86 120.03 4.86 120.15 4.86C120.21 4.86 120.24 4.86 120.27 4.86C120.39 4.86 120.48 4.89 120.6 4.89C120.66 4.89 120.72 4.92 120.78 4.92C120.84 4.92 120.9 4.92 120.96 4.92C122.55 5.16 124.05 5.82 125.28 6.87C125.31 6.9 125.34 6.9 125.37 6.93C125.43 6.99 125.46 7.02 125.52 7.05C125.58 7.14 125.67 7.2 125.73 7.29C125.76 7.29 125.76 7.32 125.79 7.32C125.85 7.41 125.94 7.47 126 7.56C126.03 7.59 126.03 7.59 126.06 7.59C126.24 7.8 126.39 7.98 126.54 8.19C126.72 8.4 126.87 8.64 126.99 8.85C127.05 8.94 127.02 9.06 126.93 9.12L124.68 10.44L123.36 11.19C123.27 11.25 123.12 11.22 123.03 11.1C122.31 9.99 121.26 9.36 120.03 9.36C118.86 9.36 117.78 9.9 117.06 10.74C116.46 11.37 116.1 12.24 116.1 13.17C116.1 14.13 116.46 14.97 117.06 15.63C117.78 16.47 118.86 17.01 120.03 17.01C121.26 17.01 122.31 16.38 123.03 15.24C123.12 15.15 123.27 15.12 123.36 15.18L126.87 17.19ZM135.435 4.86C140.085 4.86 143.865 8.61 143.865 13.2C143.865 17.79 140.085 21.51 135.435 21.51C130.785 21.51 127.005 17.79 127.005 13.2C127.005 8.61 130.785 4.86 135.435 4.86ZM135.435 16.83C137.475 16.83 139.125 15.18 139.125 13.2C139.125 11.19 137.475 9.57 135.435 9.57C133.395 9.57 131.745 11.19 131.745 13.2C131.745 15.18 133.395 16.83 135.435 16.83ZM158.687 5.1C158.867 5.1 158.987 5.28 158.927 5.46L153.437 20.85C153.407 20.94 153.317 21 153.197 21H148.547C148.457 21 148.337 20.94 148.307 20.85L142.817 5.46C142.757 5.28 142.877 5.1 143.057 5.1H147.497C147.587 5.1 147.677 5.19 147.737 5.28L150.887 14.1L154.037 5.28C154.067 5.19 154.157 5.1 154.277 5.1H158.687ZM174.443 10.83C174.683 11.61 174.773 12.39 174.773 13.2C174.773 13.65 174.743 14.19 174.653 14.67C174.623 14.79 174.533 14.88 174.383 14.88H163.253C163.073 14.88 162.953 15.09 163.043 15.27C163.733 16.41 164.963 17.16 166.313 17.16C167.453 17.16 168.533 16.65 169.283 15.66C169.343 15.6 169.433 15.54 169.553 15.57L173.813 16.32C173.963 16.35 174.053 16.53 173.993 16.68C173.903 16.89 173.783 17.13 173.693 17.25L173.633 17.37C173.573 17.49 173.513 17.61 173.423 17.73C173.333 17.88 173.243 18 173.153 18.12L173.093 18.21C173.063 18.24 173.033 18.27 173.003 18.3L172.943 18.36C172.883 18.45 172.823 18.51 172.763 18.57L172.733 18.63C172.613 18.75 172.523 18.84 172.433 18.96L172.373 19.02C172.313 19.08 172.253 19.14 172.163 19.2V19.23C172.073 19.29 172.013 19.38 171.923 19.44L171.833 19.5L171.743 19.41L171.833 19.53C171.713 19.62 171.593 19.71 171.473 19.8L171.383 19.86C171.263 19.95 171.113 20.04 170.993 20.13L170.933 20.16C170.783 20.28 170.633 20.37 170.453 20.46L170.423 20.49C170.393 20.49 170.333 20.52 170.303 20.55H170.273C170.213 20.58 170.153 20.61 170.063 20.67H170.033C169.883 20.76 169.733 20.82 169.613 20.88H169.583C169.463 20.91 169.403 20.94 169.313 20.97L169.193 21.03C169.103 21.06 168.983 21.09 168.893 21.12H168.863C168.743 21.18 168.623 21.21 168.503 21.24L168.413 21.27C168.173 21.33 167.933 21.36 167.663 21.42H167.573C167.333 21.45 167.063 21.48 166.823 21.51H166.733C166.583 21.51 166.463 21.51 166.343 21.51C166.223 21.51 166.103 21.51 165.953 21.51C165.923 21.51 165.893 21.51 165.863 21.51H165.833C165.743 21.48 165.653 21.48 165.563 21.48H165.533C165.503 21.48 165.473 21.48 165.443 21.45C165.293 21.45 165.173 21.45 165.053 21.42H164.993C164.873 21.39 164.783 21.36 164.693 21.36L164.573 21.33C164.483 21.3 164.393 21.3 164.303 21.27H164.273C164.243 21.24 164.213 21.24 164.183 21.24C164.063 21.21 163.943 21.18 163.823 21.15C163.703 21.09 163.583 21.06 163.463 21.03C163.463 21 163.433 21 163.403 21L163.373 20.97C163.283 20.94 163.193 20.91 163.133 20.88H163.103C163.073 20.85 163.043 20.85 163.013 20.85C162.893 20.79 162.803 20.73 162.683 20.7C162.563 20.64 162.473 20.58 162.353 20.52C162.323 20.52 162.293 20.49 162.263 20.49V20.46C162.173 20.43 162.113 20.4 162.023 20.34L161.933 20.28C161.813 20.22 161.723 20.16 161.633 20.1C160.613 19.41 159.743 18.54 159.113 17.49C159.053 17.43 159.023 17.34 158.963 17.25L158.933 17.19C158.903 17.13 158.843 17.04 158.813 16.95L158.783 16.89C158.783 16.86 158.753 16.86 158.753 16.83C158.573 16.5 158.453 16.14 158.333 15.78C158.243 15.6 158.213 15.42 158.153 15.27C158.123 15.15 158.093 15 158.063 14.85C157.973 14.46 157.943 14.04 157.913 13.62C157.913 13.47 157.913 13.32 157.913 13.2C157.913 13.05 157.913 12.9 157.913 12.75C157.943 12.03 158.093 11.28 158.333 10.59C158.393 10.35 158.483 10.14 158.573 9.96C158.603 9.84 158.663 9.72 158.723 9.6C158.723 9.6 158.753 9.57 158.753 9.54L158.783 9.48C158.783 9.45 158.813 9.42 158.813 9.39C158.843 9.36 158.843 9.33 158.873 9.33L158.933 9.18C158.993 9.09 159.053 8.97 159.113 8.88C159.743 7.86 160.613 6.96 161.633 6.27C161.723 6.21 161.813 6.15 161.933 6.09L162.023 6.03C162.113 6 162.173 5.94 162.263 5.91V5.88C162.293 5.88 162.323 5.85 162.353 5.85C162.473 5.79 162.563 5.73 162.683 5.67C162.803 5.64 162.893 5.58 163.013 5.52C163.043 5.52 163.073 5.52 163.103 5.49H163.133C163.193 5.46 163.283 5.43 163.373 5.4L163.403 5.37C163.433 5.37 163.463 5.37 163.463 5.34C163.583 5.31 163.703 5.28 163.823 5.22C163.943 5.19 164.063 5.16 164.183 5.13C164.213 5.13 164.243 5.13 164.273 5.1H164.303C164.393 5.07 164.483 5.07 164.573 5.04H164.633C164.753 5.01 164.933 4.98 165.023 4.95H165.053C165.173 4.95 165.293 4.92 165.443 4.92C165.473 4.92 165.503 4.89 165.533 4.89H165.563C165.653 4.89 165.743 4.89 165.833 4.89H165.863C165.893 4.86 165.923 4.86 165.953 4.86C166.103 4.86 166.223 4.86 166.343 4.86C166.463 4.86 166.583 4.86 166.733 4.86H166.823C167.063 4.89 167.333 4.92 167.573 4.95L167.693 4.98C167.933 5.01 168.173 5.04 168.413 5.1L168.503 5.13C168.623 5.16 168.743 5.22 168.863 5.25H168.893C168.983 5.28 169.103 5.31 169.193 5.34C169.223 5.37 169.253 5.37 169.283 5.4C169.403 5.43 169.463 5.46 169.553 5.49H169.613C169.733 5.55 169.883 5.64 170.033 5.7H170.063C170.153 5.76 170.213 5.79 170.273 5.82H170.303L170.243 5.94L170.303 5.82C170.333 5.85 170.393 5.88 170.423 5.91C170.573 5.97 170.783 6.12 170.933 6.21H170.963C171.113 6.3 171.233 6.39 171.383 6.51C171.413 6.54 171.443 6.57 171.473 6.57C171.593 6.66 171.713 6.75 171.833 6.87L171.893 6.9C171.983 6.99 172.073 7.08 172.163 7.14V7.17C172.253 7.23 172.313 7.29 172.373 7.35L172.433 7.41C172.523 7.53 172.613 7.62 172.703 7.74L172.643 7.83L172.733 7.74L172.763 7.8C172.823 7.86 172.883 7.92 172.943 8.01L173.003 8.07C173.063 8.13 173.123 8.22 173.183 8.31C173.243 8.4 173.303 8.46 173.333 8.52L173.423 8.67C173.453 8.73 173.513 8.79 173.543 8.85L173.693 9.12C174.023 9.66 174.263 10.23 174.443 10.83ZM169.553 11.37C169.703 11.37 169.823 11.22 169.823 11.07C169.613 9.9 168.263 9 166.523 9C164.963 9 163.463 9.9 163.253 11.07C163.223 11.22 163.343 11.37 163.493 11.37H169.553ZM184.112 5.1C184.232 5.1 184.352 5.22 184.352 5.37L184.202 9.09C184.202 9.24 184.082 9.36 183.932 9.33C183.482 9.3 182.612 9.24 182.102 9.36C181.532 9.51 181.202 9.96 181.112 10.17C180.872 10.71 180.872 11.19 180.872 11.82V20.76C180.872 20.91 180.752 21 180.602 21H175.862C175.712 21 175.622 20.91 175.622 20.76V5.37C175.622 5.22 175.712 5.1 175.862 5.1H180.302C180.452 5.1 180.572 5.22 180.572 5.37V5.82C180.572 5.91 180.662 5.97 180.752 5.91C181.802 5.25 183.062 5.13 184.112 5.1ZM200.288 5.1C200.468 5.1 200.588 5.28 200.528 5.46L195.518 19.35L193.208 25.98C193.148 26.07 193.058 26.16 192.968 26.16H188.018C187.838 26.16 187.718 25.98 187.778 25.8L189.698 20.07C189.728 20.04 189.728 19.98 189.698 19.92L184.418 5.46C184.358 5.28 184.478 5.1 184.658 5.1H189.098C189.188 5.1 189.278 5.19 189.308 5.28L192.218 13.11C192.308 13.35 192.608 13.32 192.698 13.11L195.368 5.28C195.398 5.19 195.488 5.1 195.608 5.1H200.288Z" fill="#F4F5FF"/>
</svg>
